<svg width="147" height="101" viewBox="0 0 147 101" fill="none" xmlns="http://www.w3.org/2000/svg">
<g clip-path="url(#clip0_2104_118)">
<path d="M65.2644 15.2765L66.1782 16.2212V24.1074L64.9613 24.9975L60.7587 21.4253V11.9659L47.2417 0.19519H31.2864L25.0753 5.71159H17.1587L2.78668 18.2201V26.1531L2.05835 26.6802" fill="#583DFF"/>
<path d="M65.2644 15.2765L66.1782 16.2212V24.1074L64.9613 24.9975L60.7587 21.4253V11.9659L47.2417 0.19519H31.2864L25.0753 5.71159H17.1587L2.78668 18.2201V26.1531L2.05835 26.6802" stroke="white" stroke-miterlimit="10"/>
<path d="M1.4882 28.8586C2.18526 28.8586 2.75034 28.371 2.75034 27.7694C2.75034 27.1678 2.18526 26.6802 1.4882 26.6802C0.791149 26.6802 0.226074 27.1678 0.226074 27.7694C0.226074 28.371 0.791149 28.8586 1.4882 28.8586Z" fill="#583DFF" stroke="white" stroke-miterlimit="10"/>
<path d="M64.6401 15.4365C65.2522 15.4365 65.7484 15.0083 65.7484 14.48C65.7484 13.9518 65.2522 13.5236 64.6401 13.5236C64.0279 13.5236 63.5317 13.9518 63.5317 14.48C63.5317 15.0083 64.0279 15.4365 64.6401 15.4365Z" fill="#583DFF" stroke="white" stroke-miterlimit="10"/>
<path d="M60.8673 24.1777L59.5554 22.6512V13.1332L46.3641 1.51477H32.069L24.8129 7.6441L17.5432 7.76513L4.67307 19.8911V29.3349L0.990723 32.5128V41.6209L10.5811 49.8975V52.7591L8.93446 54.1802V57.5181" fill="#583DFF"/>
<path d="M60.8673 24.1777L59.5554 22.6512V13.1332L46.3641 1.51477H32.069L24.8129 7.6441L17.5432 7.76513L4.67307 19.8911V29.3349L0.990723 32.5128V41.6209L10.5811 49.8975V52.7591L8.93446 54.1802V57.5181" stroke="white" stroke-miterlimit="10"/>
<path d="M67.9877 98.2411L67.7661 38.1073L53.9731 26.2039V12.8404L44.826 4.32178H33.1457L25.8669 10.7361H27.4684L33.2769 5.56716H44.057L50.4355 11.2788V33.4849L64.2873 45.4352V82.9451L63.2016 83.8821" fill="#583DFF"/>
<path d="M67.9877 98.2411L67.7661 38.1073L53.9731 26.2039V12.8404L44.826 4.32178H33.1457L25.8669 10.7361H27.4684L33.2769 5.56716H44.057L50.4355 11.2788V33.4849L64.2873 45.4352V82.9451L63.2016 83.8821" stroke="white" stroke-miterlimit="10"/>
<path d="M51.7881 14.4801V32.9969L66.1782 45.1931V91.0421" fill="#583DFF"/>
<path d="M51.7881 14.4801V32.9969L66.1782 45.1931V91.0421" stroke="white" stroke-miterlimit="10"/>
<path d="M66.1783 93.1112C66.8404 93.1112 67.3771 92.648 67.3771 92.0767C67.3771 91.5053 66.8404 91.0421 66.1783 91.0421C65.5162 91.0421 64.9795 91.5053 64.9795 92.0767C64.9795 92.648 65.5162 93.1112 66.1783 93.1112Z" fill="#583DFF" stroke="white" stroke-miterlimit="10"/>
<path d="M62.0026 86.0956C62.8271 86.0956 63.4955 85.5188 63.4955 84.8073C63.4955 84.0958 62.8271 83.519 62.0026 83.519C61.1781 83.519 60.5098 84.0958 60.5098 84.8073C60.5098 85.5188 61.1781 86.0956 62.0026 86.0956Z" fill="#583DFF" stroke="white" stroke-miterlimit="10"/>
<path d="M67.9876 100.197C68.6497 100.197 69.1864 99.7338 69.1864 99.1625C69.1864 98.5911 68.6497 98.1279 67.9876 98.1279C67.3255 98.1279 66.7888 98.5911 66.7888 99.1625C66.7888 99.7338 67.3255 100.197 67.9876 100.197Z" fill="#583DFF" stroke="white" stroke-miterlimit="10"/>
<path d="M68.1504 16.9864V26.4381L63.8212 29.2178L58.0036 24.6071V13.5236L45.423 2.56104H33.0369L25.4868 9.07687L18.579 9.38138L9.7124 17.5291V39.0442L21.8587 50.1356L21.9039 57.5181L27.3641 62.2342" fill="#583DFF"/>
<path d="M68.1504 16.9864V26.4381L63.8212 29.2178L58.0036 24.6071V13.5236L45.423 2.56104H33.0369L25.4868 9.07687L18.579 9.38138L9.7124 17.5291V39.0442L21.8587 50.1356L21.9039 57.5181L27.3641 62.2342" stroke="white" stroke-miterlimit="10"/>
<path d="M69.9102 17.3261V34.1642L72.8099 37.8379" fill="#583DFF"/>
<path d="M69.9102 17.3261V34.1642L72.8099 37.8379" stroke="white" stroke-miterlimit="10"/>
<path d="M28.3505 64.1862C29.0476 64.1862 29.6126 63.6986 29.6126 63.097C29.6126 62.4954 29.0476 62.0078 28.3505 62.0078C27.6535 62.0078 27.0884 62.4954 27.0884 63.097C27.0884 63.6986 27.6535 64.1862 28.3505 64.1862Z" fill="#583DFF" stroke="white" stroke-miterlimit="10"/>
<path d="M8.98869 59.6966C9.68575 59.6966 10.2508 59.2089 10.2508 58.6074C10.2508 58.0058 9.68575 57.5181 8.98869 57.5181C8.29164 57.5181 7.72656 58.0058 7.72656 58.6074C7.72656 59.2089 8.29164 59.6966 8.98869 59.6966Z" fill="#583DFF" stroke="white" stroke-miterlimit="10"/>
<path d="M3.63262 32.1536L2.05835 33.6918V40.9182L11.8342 49.2182V59.6966L28.7757 74.0712H42.8084" fill="#583DFF"/>
<path d="M3.63262 32.1536L2.05835 33.6918V40.9182L11.8342 49.2182V59.6966L28.7757 74.0712H42.8084" stroke="white" stroke-miterlimit="10"/>
<path d="M7.35124 21.0818V32.3762L4.47412 34.5507V39.829L14.2183 48.1758V59.1773L29.2734 72.0138H42.5145" fill="#583DFF"/>
<path d="M7.35124 21.0818V32.3762L4.47412 34.5507V39.829L14.2183 48.1758V59.1774L29.2734 72.0138H42.5145" stroke="white" stroke-miterlimit="10"/>
<path d="M7.2063 37.4475V39.5791L16.2222 47.0475V58.9705L30.187 70.8309H41.6729" fill="#583DFF"/>
<path d="M7.2063 37.4475V39.5791L16.2222 47.0475V58.9705L30.187 70.8309H41.6729" stroke="white" stroke-miterlimit="10"/>
<path d="M36.5112 68.8203H29.6125L18.3347 58.9704V50.6861" fill="#583DFF"/>
<path d="M36.5112 68.8203H29.6125L18.3347 58.9704V50.6861" stroke="white" stroke-miterlimit="10"/>
<path d="M26.2424 74.4616L27.4231 75.5509H46.9251" fill="#583DFF"/>
<path d="M26.2424 74.4616L27.4231 75.5509H46.9251" stroke="white" stroke-miterlimit="10"/>
<path d="M37.1129 81.1141V82.4962L48.3318 92.1743H51.4803L55.7508 95.8987H58.6369L60.9938 97.6126V89.8709L56.3977 85.9044V81.7154L60.2384 78.3032L60.1841 69.8705L62.4867 67.9341V46.5478L48.5444 34.6561V12.3836L42.6454 7.32788H32.2905L26.9434 12.5085L18.6649 12.325L11.635 19.0517V38.1463L23.7858 49.4836V56.3547L27.3415 59.2867" fill="#583DFF"/>
<path d="M37.1129 81.1141V82.4962L48.3318 92.1743H51.4803L55.7508 95.8987H58.6369L60.9938 97.6126V89.8709L56.3977 85.9044V81.7154L60.2384 78.3032L60.1841 69.8705L62.4867 67.9341V46.5478L48.5444 34.6561V12.3836L42.6454 7.32788H32.2905L26.9434 12.5085L18.6649 12.325L11.635 19.0517V38.1463L23.7858 49.4836V56.3547L27.3415 59.2867" stroke="white" stroke-miterlimit="10"/>
<path d="M14.277 25.7003L12.7932 24.7828L12.9515 19.5514L18.8415 13.4377L27.4774 13.5236L33.209 8.38977H42.5144L47.4181 12.6725L47.3819 16.678" fill="#583DFF"/>
<path d="M14.277 25.7003L12.7932 24.7828L12.9515 19.5514L18.8415 13.4377L27.4774 13.5236L33.209 8.38977H42.5144L47.4181 12.6725L47.3819 16.678" stroke="white" stroke-miterlimit="10"/>
<path d="M19.0452 30.3304L34.5572 43.8657V55.5505L41.9173 62.0078V67.6491L44.0661 69.687L52.2225 76.726V86.4587L54.326 88.2741" fill="#583DFF"/>
<path d="M19.0452 30.3304L34.5572 43.8657V55.5505L41.9173 62.0078V67.6491L44.0661 69.687L52.2225 76.726V86.4587L54.326 88.2741" stroke="white" stroke-miterlimit="10"/>
<path d="M37.1672 77.0344H43.2969L47.6986 81.0087V87.9149L50.639 90.1871H52.9823L54.5611 91.9166H56.4475" fill="#583DFF"/>
<path d="M37.1672 77.0344H43.2969L47.6986 81.0087V87.9149L50.639 90.1871H52.9823L54.5611 91.9166H56.4475" stroke="white" stroke-miterlimit="10"/>
<path d="M13.2817 33.9026V37.6388L29.979 52.0486V57.0028L32.0689 58.6074" fill="#583DFF"/>
<path d="M13.2817 33.9026V37.6388L29.979 52.0486V57.0028L32.0689 58.6074" stroke="white" stroke-miterlimit="10"/>
<path d="M44.4641 25.7003L46.0384 24.2753V12.9653L42.5144 9.61563H35.7649L32.5168 12.5983" fill="#583DFF"/>
<path d="M44.4641 25.7003L46.0384 24.2753V12.9653L42.5144 9.61563H35.7649L32.5168 12.5983" stroke="white" stroke-miterlimit="10"/>
<path d="M38.5425 23.678L32.069 18.3529H22.6731L19.6241 21.0818L19.4341 28.761L35.9277 43.0225L36.0001 55.0781L43.3241 61.2075V65.1857L46.4183 67.856V69.3591L54.3259 75.75V86.3299L59.6956 90.964V94.2512H60.9034V89.8826L56.2666 85.8849V71.639L53.3759 69.1444V58.1935L58.4289 53.8327V46.9343L42.8084 33.9026V31.6305" fill="#583DFF"/>
<path d="M38.5425 23.678L32.069 18.3529H22.6731L19.6241 21.0818L19.4341 28.761L35.9277 43.0225L36.0001 55.0781L43.3241 61.2075V65.1857L46.4183 67.856V69.3591L54.3259 75.75V86.3299L59.6956 90.964V94.2512H60.9034V89.8826L56.2666 85.8849V71.639L53.3759 69.1444V58.1935L58.4289 53.8327V46.9343L42.8084 33.9026V31.6305" stroke="white" stroke-miterlimit="10"/>
<path d="M31.3181 22.5263L29.9112 21.2575H24.0484L21.8679 23.3032V28.7766L37.5201 42.3315V54.555L44.5501 60.2939V64.1862L51.7881 69.9837V64.4283L49.1281 62.0078L48.9834 57.8851L41.673 51.9783V47.7034" fill="#583DFF"/>
<path d="M31.3181 22.5263L29.9112 21.2575H24.0484L21.8679 23.3032V28.7766L37.5201 42.3315V54.555L44.5501 60.2939V64.1862L51.7881 69.9837V64.4283L49.1281 62.0078L48.9834 57.8851L41.673 51.9783V47.7034" stroke="white" stroke-miterlimit="10"/>
<path d="M27.3054 24.6618V27.336L41.6729 39.6064V44.3693" fill="#583DFF"/>
<path d="M27.3054 24.6618V27.336L41.6729 39.6064V44.3693" stroke="white" stroke-miterlimit="10"/>
<path d="M42.08 71.3423C42.4222 71.3423 42.6997 71.1028 42.6997 70.8074C42.6997 70.512 42.4222 70.2726 42.08 70.2726C41.7377 70.2726 41.4602 70.512 41.4602 70.8074C41.4602 71.1028 41.7377 71.3423 42.08 71.3423Z" fill="#583DFF"/>
</g>
<g clip-path="url(#clip1_2104_118)">
<path d="M80.8417 15.2765L79.9154 16.2212V24.1074L81.1489 24.9975L85.4091 21.4253V11.9659L99.1113 0.19519H115.285L121.581 5.71159H129.606L144.175 18.2201V26.1531L144.914 26.6802" fill="#583DFF"/>
<path d="M80.8417 15.2765L79.9154 16.2212V24.1074L81.1489 24.9975L85.4091 21.4253V11.9659L99.1113 0.19519H115.285L121.581 5.71159H129.606L144.175 18.2201V26.1531L144.914 26.6802" stroke="white" stroke-miterlimit="10"/>
<path d="M145.491 28.8586C144.785 28.8586 144.212 28.371 144.212 27.7694C144.212 27.1678 144.785 26.6802 145.491 26.6802C146.198 26.6802 146.771 27.1678 146.771 27.7694C146.771 28.371 146.198 28.8586 145.491 28.8586Z" fill="#583DFF" stroke="white" stroke-miterlimit="10"/>
<path d="M81.4744 15.4365C80.8539 15.4365 80.3509 15.0083 80.3509 14.48C80.3509 13.9518 80.8539 13.5236 81.4744 13.5236C82.0949 13.5236 82.5979 13.9518 82.5979 14.48C82.5979 15.0083 82.0949 15.4365 81.4744 15.4365Z" fill="#583DFF" stroke="white" stroke-miterlimit="10"/>
<path d="M85.2988 24.1777L86.6287 22.6512V13.1332L100.001 1.51477H114.492L121.847 7.6441L129.216 7.76513L142.263 19.8911V29.3349L145.996 32.5128V41.6209L136.274 49.8975V52.7591L137.943 54.1802V57.5181" fill="#583DFF"/>
<path d="M85.2988 24.1777L86.6287 22.6512V13.1332L100.001 1.51477H114.492L121.847 7.6441L129.216 7.76513L142.263 19.8911V29.3349L145.996 32.5128V41.6209L136.274 49.8975V52.7591L137.943 54.1802V57.5181" stroke="white" stroke-miterlimit="10"/>
<path d="M78.081 98.2411L78.3057 38.1073L92.2876 26.2039V12.8404L101.56 4.32178H113.4L120.779 10.7361H119.155L113.267 5.56716H102.34L95.8737 11.2788V33.4849L81.8322 45.4352V82.9451L82.9327 83.8821" fill="#583DFF"/>
<path d="M78.081 98.2411L78.3057 38.1073L92.2876 26.2039V12.8404L101.56 4.32178H113.4L120.779 10.7361H119.155L113.267 5.56716H102.34L95.8737 11.2788V33.4849L81.8322 45.4352V82.9451L82.9327 83.8821" stroke="white" stroke-miterlimit="10"/>
<path d="M94.5024 14.4801V32.9969L79.9152 45.1931V91.0421" fill="#583DFF"/>
<path d="M94.5024 14.4801V32.9969L79.9152 45.1931V91.0421" stroke="white" stroke-miterlimit="10"/>
<path d="M79.9154 93.1112C79.2443 93.1112 78.7002 92.648 78.7002 92.0767C78.7002 91.5053 79.2443 91.0421 79.9154 91.0421C80.5865 91.0421 81.1306 91.5053 81.1306 92.0767C81.1306 92.648 80.5865 93.1112 79.9154 93.1112Z" fill="#583DFF" stroke="white" stroke-miterlimit="10"/>
<path d="M84.1478 86.0956C83.3121 86.0956 82.6345 85.5188 82.6345 84.8073C82.6345 84.0958 83.3121 83.519 84.1478 83.519C84.9836 83.519 85.6611 84.0958 85.6611 84.8073C85.6611 85.5188 84.9836 86.0956 84.1478 86.0956Z" fill="#583DFF" stroke="white" stroke-miterlimit="10"/>
<path d="M78.0809 100.197C77.4098 100.197 76.8657 99.7338 76.8657 99.1624C76.8657 98.5911 77.4098 98.1279 78.0809 98.1279C78.7521 98.1279 79.2961 98.5911 79.2961 99.1624C79.2961 99.7338 78.7521 100.197 78.0809 100.197Z" fill="#583DFF" stroke="white" stroke-miterlimit="10"/>
<path d="M77.916 16.9864V26.4381L82.3046 29.2178L88.2018 24.6071V13.5236L100.955 2.56104H113.51L121.164 9.07687L128.167 9.38138L137.155 17.5291V39.0442L124.842 50.1356L124.796 57.5181L119.261 62.2342" fill="#583DFF"/>
<path d="M77.916 16.9864V26.4381L82.3046 29.2178L88.2018 24.6071V13.5236L100.955 2.56104H113.51L121.164 9.07687L128.167 9.38138L137.155 17.5291V39.0442L124.842 50.1356L124.796 57.5181L119.261 62.2342" stroke="white" stroke-miterlimit="10"/>
<path d="M76.1321 17.3261V34.1642L73.1926 37.8379" fill="#583DFF"/>
<path d="M76.1321 17.3261V34.1642L73.1926 37.8379" stroke="white" stroke-miterlimit="10"/>
<path d="M118.261 64.1862C117.555 64.1862 116.982 63.6986 116.982 63.097C116.982 62.4954 117.555 62.0078 118.261 62.0078C118.968 62.0078 119.541 62.4954 119.541 63.097C119.541 63.6986 118.968 64.1862 118.261 64.1862Z" fill="#583DFF" stroke="white" stroke-miterlimit="10"/>
<path d="M137.888 59.6966C137.181 59.6966 136.609 59.2089 136.609 58.6074C136.609 58.0058 137.181 57.5181 137.888 57.5181C138.595 57.5181 139.167 58.0058 139.167 58.6074C139.167 59.2089 138.595 59.6966 137.888 59.6966Z" fill="#583DFF" stroke="white" stroke-miterlimit="10"/>
<path d="M143.318 32.1536L144.914 33.6918V40.9182L135.004 49.2182V59.6966L117.83 74.0712H103.605" fill="#583DFF"/>
<path d="M143.318 32.1536L144.914 33.6918V40.9182L135.004 49.2182V59.6966L117.83 74.0712H103.605" stroke="white" stroke-miterlimit="10"/>
<path d="M139.548 21.0818V32.3762L142.465 34.5507V39.829L132.587 48.1758V59.1773L117.326 72.0138H103.903" fill="#583DFF"/>
<path d="M139.548 21.0818V32.3762L142.465 34.5507V39.829L132.587 48.1758V59.1774L117.326 72.0138H103.903" stroke="white" stroke-miterlimit="10"/>
<path d="M139.695 37.4475V39.5791L130.555 47.0475V58.9705L116.399 70.8309H104.756" fill="#583DFF"/>
<path d="M139.695 37.4475V39.5791L130.555 47.0475V58.9705L116.399 70.8309H104.756" stroke="white" stroke-miterlimit="10"/>
<path d="M109.989 68.8203H116.982L128.414 58.9705V50.6861" fill="#583DFF"/>
<path d="M109.989 68.8203H116.982L128.414 58.9705V50.6861" stroke="white" stroke-miterlimit="10"/>
<path d="M120.398 74.4616L119.201 75.5509H99.4322" fill="#583DFF"/>
<path d="M120.398 74.4616L119.201 75.5509H99.4322" stroke="white" stroke-miterlimit="10"/>
<path d="M109.379 81.1141V82.4962L98.0061 92.1743H94.8144L90.4855 95.8987H87.5598L85.1706 97.6126V89.8709L89.8297 85.9044V81.7154L85.9364 78.3032L85.9915 69.8705L83.6573 67.9341V46.5478L97.7906 34.6561V12.3836L103.77 7.32788H114.267L119.687 12.5085L128.079 12.325L135.206 19.0517V38.1463L122.888 49.4836V56.3548L119.284 59.2867" fill="#583DFF"/>
<path d="M109.379 81.1141V82.4962L98.0061 92.1743H94.8144L90.4855 95.8987H87.5598L85.1706 97.6126V89.8709L89.8297 85.9044V81.7154L85.9364 78.3032L85.9915 69.8705L83.6573 67.9341V46.5478L97.7906 34.6561V12.3836L103.77 7.32788H114.267L119.687 12.5085L128.079 12.325L135.206 19.0517V38.1463L122.888 49.4836V56.3548L119.284 59.2867" stroke="white" stroke-miterlimit="10"/>
<path d="M132.527 25.7003L134.031 24.7828L133.871 19.5514L127.9 13.4377L119.146 13.5236L113.336 8.38977H103.903L98.9323 12.6725L98.969 16.678" fill="#583DFF"/>
<path d="M132.527 25.7003L134.031 24.7828L133.871 19.5514L127.9 13.4377L119.146 13.5236L113.336 8.38977H103.903L98.9323 12.6725L98.969 16.678" stroke="white" stroke-miterlimit="10"/>
<path d="M127.694 30.3304L111.97 43.8657V55.5505L104.509 62.0078V67.6491L102.33 69.687L94.0623 76.726V86.4587L91.93 88.2741" fill="#583DFF"/>
<path d="M127.694 30.3304L111.97 43.8657V55.5505L104.509 62.0078V67.6491L102.33 69.687L94.0623 76.726V86.4587L91.93 88.2741" stroke="white" stroke-miterlimit="10"/>
<path d="M109.323 77.0344H103.11L98.6479 81.0087V87.915L95.6672 90.1871H93.2918L91.6913 91.9166H89.7791" fill="#583DFF"/>
<path d="M109.323 77.0344H103.11L98.6479 81.0087V87.915L95.6672 90.1871H93.2918L91.6913 91.9166H89.7791" stroke="white" stroke-miterlimit="10"/>
<path d="M133.536 33.9026V37.6388L116.61 52.0486V57.0028L114.492 58.6074" fill="#583DFF"/>
<path d="M133.536 33.9026V37.6388L116.61 52.0486V57.0028L114.492 58.6074" stroke="white" stroke-miterlimit="10"/>
<path d="M101.927 25.7003L100.331 24.2753V12.9653L103.903 9.61563H110.745L114.038 12.5983" fill="#583DFF"/>
<path d="M101.927 25.7003L100.331 24.2753V12.9653L103.903 9.61563H110.745L114.038 12.5983" stroke="white" stroke-miterlimit="10"/>
<path d="M107.93 23.678L114.492 18.3529H124.016L127.107 21.0818L127.3 28.761L110.58 43.0225L110.507 55.0781L103.083 61.2075V65.1857L99.9459 67.856V69.3591L91.93 75.75V86.3299L86.4868 90.964V94.2512H85.2624V89.8826L89.9628 85.8849V71.639L92.893 69.1444V58.1935L87.7708 53.8327V46.9343L103.605 33.9026V31.6305" fill="#583DFF"/>
<path d="M107.93 23.678L114.492 18.3529H124.016L127.107 21.0818L127.3 28.761L110.58 43.0225L110.507 55.0781L103.083 61.2075V65.1857L99.9459 67.856V69.3591L91.93 75.75V86.3299L86.4868 90.964V94.2512H85.2624V89.8826L89.9628 85.8849V71.639L92.893 69.1444V58.1935L87.7708 53.8327V46.9343L103.605 33.9026V31.6305" stroke="white" stroke-miterlimit="10"/>
<path d="M115.253 22.5263L116.679 21.2575H122.622L124.833 23.3032V28.7766L108.966 42.3315V54.555L101.84 60.2939V64.1862L94.5025 69.9837V64.4283L97.1989 62.0078L97.3456 57.8851L104.756 51.9783V47.7034" fill="#583DFF"/>
<path d="M115.253 22.5263L116.679 21.2575H122.622L124.833 23.3032V28.7766L108.966 42.3315V54.555L101.84 60.2939V64.1862L94.5025 69.9837V64.4283L97.1989 62.0078L97.3456 57.8851L104.756 51.9783V47.7034" stroke="white" stroke-miterlimit="10"/>
<path d="M119.321 24.6618V27.336L104.756 39.6064V44.3693" fill="#583DFF"/>
<path d="M119.321 24.6618V27.336L104.756 39.6064V44.3693" stroke="white" stroke-miterlimit="10"/>
<path d="M104.343 71.3423C103.996 71.3423 103.715 71.1028 103.715 70.8074C103.715 70.512 103.996 70.2726 104.343 70.2726C104.69 70.2726 104.972 70.512 104.972 70.8074C104.972 71.1028 104.69 71.3423 104.343 71.3423Z" fill="#583DFF"/>
</g>
<defs>
<clipPath id="clip0_2104_118">
<rect width="73" height="100.392" fill="white"/>
</clipPath>
<clipPath id="clip1_2104_118">
<rect width="74" height="100.392" fill="white" transform="matrix(-1 0 0 1 147 0)"/>
</clipPath>
</defs>
</svg>
